<?xml version="1.0" encoding="utf-8"?>
<!-- Generator: Adobe Illustrator 23.0.4, SVG Export Plug-In . SVG Version: 6.00 Build 0)  -->
<svg version="1.1" id="Capa_1" xmlns="http://www.w3.org/2000/svg" xmlns:xlink="http://www.w3.org/1999/xlink" x="0px" y="0px"
	 viewBox="0 0 842 100" style="enable-background:new 0 0 842 100;" xml:space="preserve">
<style type="text/css">
	.st0{fill:#7D3276;}
	.st1{fill:#52E252;}
</style>
<g>
	<path class="st0" d="M17.8,41.4l-5.4,15.2H9.6L15,41.4H17.8z"/>
	<path class="st0" d="M30.6,41.4l-5.4,15.2h-2.8l5.4-15.2H30.6z"/>
	<path class="st0" d="M43.3,41.4l-5.4,15.2H35l5.4-15.2H43.3z"/>
	<path class="st0" d="M56,41.4l-5.4,15.2h-2.8l5.4-15.2H56z"/>
	<path class="st0" d="M68.7,41.4l-5.4,15.2h-2.8l5.4-15.2H68.7z"/>
	<path class="st0" d="M81.5,41.4L76,56.6h-2.8l5.4-15.2H81.5z"/>
	<path class="st0" d="M94.2,41.4l-5.4,15.2h-2.8l5.4-15.2H94.2z"/>
	<path class="st0" d="M106.9,41.4l-5.4,15.2h-2.8l5.4-15.2H106.9z"/>
	<path class="st0" d="M119.7,41.4l-5.4,15.2h-2.8l5.4-15.2H119.7z"/>
	<path class="st0" d="M132.4,41.4l-5.4,15.2h-2.8l5.4-15.2H132.4z"/>
	<path class="st0" d="M145.1,41.4l-5.4,15.2h-2.8l5.4-15.2H145.1z"/>
	<path class="st0" d="M157.8,41.4l-5.4,15.2h-2.8l5.4-15.2H157.8z"/>
	<path class="st0" d="M170.6,41.4l-5.4,15.2h-2.8l5.4-15.2H170.6z"/>
	<path class="st0" d="M183.3,41.4l-5.4,15.2H175l5.4-15.2H183.3z"/>
	<path class="st0" d="M196,41.4l-5.4,15.2h-2.8l5.4-15.2H196z"/>
	<path class="st0" d="M208.8,41.4l-5.4,15.2h-2.8l5.4-15.2H208.8z"/>
	<path class="st0" d="M221.5,41.4L216,56.6h-2.8l5.4-15.2H221.5z"/>
	<path class="st0" d="M234.2,41.4l-5.4,15.2h-2.8l5.4-15.2H234.2z"/>
	<path class="st0" d="M246.9,41.4l-5.4,15.2h-2.8l5.4-15.2H246.9z"/>
	<path class="st0" d="M259.7,41.4l-5.4,15.2h-2.8l5.4-15.2H259.7z"/>
	<path class="st0" d="M272.4,41.4l-5.4,15.2h-2.8l5.4-15.2H272.4z"/>
	<path class="st0" d="M285.1,41.4l-5.4,15.2h-2.8l5.4-15.2H285.1z"/>
	<path class="st0" d="M297.8,41.4l-5.4,15.2h-2.8l5.4-15.2H297.8z"/>
	<path class="st0" d="M310.6,41.4l-5.4,15.2h-2.8l5.4-15.2H310.6z"/>
	<path class="st0" d="M323.3,41.4l-5.4,15.2H315l5.4-15.2H323.3z"/>
	<path class="st0" d="M336,41.4l-5.4,15.2h-2.8l5.4-15.2H336z"/>
	<path class="st0" d="M348.8,41.4l-5.4,15.2h-2.8l5.4-15.2H348.8z"/>
	<path class="st0" d="M361.5,41.4L356,56.6h-2.8l5.4-15.2H361.5z"/>
	<path class="st0" d="M374.2,41.4l-5.4,15.2H366l5.4-15.2H374.2z"/>
	<path class="st0" d="M386.9,41.4l-5.4,15.2h-2.8l5.4-15.2H386.9z"/>
	<path class="st0" d="M399.7,41.4l-5.4,15.2h-2.8l5.4-15.2H399.7z"/>
	<path class="st0" d="M412.4,41.4L407,56.6h-2.8l5.4-15.2H412.4z"/>
	<path class="st0" d="M425.1,41.4l-5.4,15.2h-2.8l5.4-15.2H425.1z"/>
	<path class="st0" d="M437.9,41.4l-5.4,15.2h-2.8l5.4-15.2H437.9z"/>
	<path class="st0" d="M450.6,41.4l-5.4,15.2h-2.8l5.4-15.2H450.6z"/>
	<path class="st0" d="M463.3,41.4l-5.4,15.2h-2.8l5.4-15.2H463.3z"/>
	<path class="st0" d="M476,41.4l-5.4,15.2h-2.8l5.4-15.2H476z"/>
	<path class="st0" d="M488.8,41.4l-5.4,15.2h-2.8l5.4-15.2H488.8z"/>
	<path class="st0" d="M501.5,41.4l-5.4,15.2h-2.8l5.4-15.2H501.5z"/>
	<path class="st0" d="M514.2,41.4l-5.4,15.2H506l5.4-15.2H514.2z"/>
	<path class="st0" d="M527,41.4l-5.4,15.2h-2.8l5.4-15.2H527z"/>
	<path class="st0" d="M539.7,41.4l-5.4,15.2h-2.8l5.4-15.2H539.7z"/>
	<path class="st0" d="M552.4,41.4L547,56.6h-2.8l5.4-15.2H552.4z"/>
	<path class="st0" d="M565.1,41.4l-5.4,15.2h-2.8l5.4-15.2H565.1z"/>
	<path class="st0" d="M577.9,41.4l-5.4,15.2h-2.8l5.4-15.2H577.9z"/>
	<path class="st0" d="M590.6,41.4l-5.4,15.2h-2.8l5.4-15.2H590.6z"/>
	<path class="st0" d="M603.3,41.4l-5.4,15.2h-2.8l5.4-15.2H603.3z"/>
	<path class="st0" d="M616.1,41.4l-5.4,15.2h-2.8l5.4-15.2H616.1z"/>
	<path class="st0" d="M628.8,41.4l-5.4,15.2h-2.8l5.4-15.2H628.8z"/>
	<path class="st0" d="M641.5,41.4l-5.4,15.2h-2.8l5.4-15.2H641.5z"/>
	<path class="st0" d="M654.2,41.4l-5.4,15.2H646l5.4-15.2H654.2z"/>
	<path class="st0" d="M667,41.4l-5.4,15.2h-2.8l5.4-15.2H667z"/>
	<path class="st0" d="M679.7,41.4l-5.4,15.2h-2.8l5.4-15.2H679.7z"/>
	<path class="st0" d="M692.4,41.4L687,56.6h-2.8l5.4-15.2H692.4z"/>
	<path class="st0" d="M705.2,41.4l-5.4,15.2h-2.8l5.4-15.2H705.2z"/>
	<path class="st0" d="M717.9,41.4l-5.4,15.2h-2.8l5.4-15.2H717.9z"/>
	<path class="st0" d="M730.6,41.4l-5.4,15.2h-2.8l5.4-15.2H730.6z"/>
	<path class="st0" d="M743.3,41.4l-5.4,15.2h-2.8l5.4-15.2H743.3z"/>
	<path class="st0" d="M756.1,41.4l-5.4,15.2h-2.8l5.4-15.2H756.1z"/>
	<path class="st0" d="M768.8,41.4l-5.4,15.2h-2.8l5.4-15.2H768.8z"/>
	<path class="st0" d="M781.5,41.4l-5.4,15.2h-2.8l5.4-15.2H781.5z"/>
	<path class="st0" d="M794.2,41.4l-5.4,15.2H786l5.4-15.2H794.2z"/>
	<path class="st0" d="M807,41.4l-5.4,15.2h-2.8l5.4-15.2H807z"/>
	<path class="st0" d="M819.7,41.4l-5.4,15.2h-2.8l5.4-15.2H819.7z"/>
	<path class="st0" d="M832.4,41.4L827,56.6h-2.8l5.4-15.2H832.4z"/>
</g>
</svg>
